<svg xmlns="http://www.w3.org/2000/svg" viewBox="0 0 32 32" fill="none">
  <!-- Brown heart shape -->
  <path d="M16 28L6.5 18.5C4.5 16.5 4.5 13.5 6.5 11.5C8.5 9.5 11.5 9.5 13.5 11.5L16 14L18.5 11.5C20.5 9.5 23.5 9.5 25.5 11.5C27.5 13.5 27.5 16.5 25.5 18.5L16 28Z" fill="#8b7355"/>
  <!-- Darker outline -->
  <path d="M16 28L6.5 18.5C4.5 16.5 4.5 13.5 6.5 11.5C8.5 9.5 11.5 9.5 13.5 11.5L16 14L18.5 11.5C20.5 9.5 23.5 9.5 25.5 11.5C27.5 13.5 27.5 16.5 25.5 18.5L16 28Z" stroke="#6b5b47" stroke-width="1" fill="none"/>
  <!-- Lighter highlight -->
  <path d="M16 25L8 17C6.5 15.5 6.5 13 8 11.5C9.5 10 12 10 13.5 11.5L16 14L18.5 11.5C20 10 22.5 10 24 11.5C25.5 13 25.5 15.5 24 17L16 25Z" fill="#a0845c"/>
  <!-- Inner glow -->
  <path d="M16 22L10 16C9 15 9 13.5 10 12.5C11 11.5 12.5 11.5 13.5 12.5L16 15L18.5 12.5C19.5 11.5 21 11.5 22 12.5C23 13.5 23 15 22 16L16 22Z" fill="#cd853f"/>
  <!-- Subtle sparkle -->
  <circle cx="14" cy="15" r="1" fill="#f5f0e8" opacity="0.6"/>
  <circle cx="20" cy="13" r="0.5" fill="#fdfcfa" opacity="0.8"/>
</svg>